<svg version="1.1" id="Layer_1" xmlns="http://www.w3.org/2000/svg" xmlns:xlink="http://www.w3.org/1999/xlink" x="0px" y="0px"
	 width="100%" viewBox="0 0 314 80" enable-background="new 0 0 314 80" xml:space="preserve">
<path fill="#13191F" opacity="1.000000" stroke="none" 
	d="
M228.000000,81.000000 
	C152.000015,81.000000 76.500046,81.000000 1.000051,81.000000 
	C1.000034,54.333363 1.000034,27.666727 1.000017,1.000069 
	C105.666603,1.000046 210.333206,1.000046 314.999878,1.000023 
	C314.999908,27.666597 314.999908,54.333195 314.999939,80.999893 
	C286.166656,81.000000 257.333344,81.000000 228.000000,81.000000 
M20.022648,54.828827 
	C20.206852,56.813881 20.343819,58.804665 20.583961,60.782928 
	C21.357565,67.155731 23.719543,68.331894 29.109907,64.885139 
	C35.969788,60.498730 42.797184,56.057831 49.549706,51.508499 
	C54.053440,48.474236 53.910767,45.577705 49.489075,42.820713 
	C47.176128,41.378555 45.041988,39.649616 43.103836,37.452908 
	C42.260715,35.681965 41.891941,33.055305 40.496063,32.281532 
	C32.540901,27.871784 24.364574,23.856024 16.212469,19.808987 
	C12.919164,18.174057 10.884039,18.713285 10.953761,23.063427 
	C11.089380,31.525057 10.958933,39.990582 11.005147,48.454124 
	C11.047216,56.158710 13.180408,57.461472 20.022648,54.828827 
M136.143784,41.549686 
	C139.069168,37.426388 139.993637,33.067226 137.430115,28.446369 
	C134.938599,23.955303 130.600128,23.632191 126.137215,23.685949 
	C123.638229,23.716049 121.125191,23.871349 118.642677,23.670773 
	C115.056053,23.380989 114.036591,24.991690 114.123253,28.370613 
	C114.306885,35.530487 114.175598,42.698311 114.182625,49.862869 
	C114.194847,62.319004 114.197899,62.239422 126.409096,62.262119 
	C131.510864,62.271603 136.248688,61.585426 138.753662,56.540970 
	C141.357864,51.296692 139.951019,46.514603 136.143784,41.549686 
M184.144287,38.528465 
	C181.618439,33.054810 182.389359,31.654747 188.020432,31.526943 
	C189.516129,31.492996 191.013031,31.514172 192.509354,31.505497 
	C198.918533,31.468334 199.485550,30.644264 197.429901,23.664148 
	C191.291443,23.664148 184.992325,23.473536 178.724869,23.833855 
	C177.549271,23.901443 175.572769,26.147009 175.539459,27.428410 
	C175.271698,37.729439 175.443024,48.040905 175.338013,58.347733 
	C175.306534,61.435860 176.628906,62.399883 179.556168,62.304214 
	C184.538986,62.141357 189.532257,62.155064 194.517441,62.263805 
	C197.337036,62.325306 198.794739,61.540009 198.826523,58.361946 
	C198.858078,55.207848 197.514206,54.247410 194.628265,54.383854 
	C192.140732,54.501465 189.637817,54.283527 187.149139,54.389221 
	C184.396011,54.506149 182.833847,53.843842 182.818817,50.572914 
	C182.804123,47.375782 184.158295,46.514545 187.021774,46.690453 
	C189.340225,46.832878 191.679398,46.616829 194.001465,46.726994 
	C197.082153,46.873142 198.004181,45.422874 197.959335,42.490417 
	C197.915268,39.608646 196.691788,38.706726 193.999359,38.809109 
	C191.013412,38.922653 188.017319,38.769135 184.144287,38.528465 
M167.649170,44.975643 
	C171.032837,38.734680 171.084167,31.721491 167.250031,27.708261 
	C160.832550,20.991014 152.795609,24.481932 144.913864,23.940624 
	C144.913864,30.818180 144.913864,36.952126 144.913864,43.086067 
	C144.913864,49.342812 144.913864,55.599552 144.913864,61.739521 
	C152.036819,62.543381 152.050705,62.532486 152.077408,56.613491 
	C152.082657,55.449322 151.873169,54.234394 152.140854,53.134949 
	C152.418488,51.994678 153.175186,50.052067 153.687698,50.063145 
	C155.129898,50.094311 157.036057,50.550682 157.878525,51.568466 
	C159.326736,53.318066 160.321350,55.540951 161.124542,57.706776 
	C162.925491,62.563141 166.250916,63.052021 171.172729,61.382069 
	C169.503204,58.076706 168.159882,54.901360 166.360718,52.009640 
	C164.769485,49.452133 164.708466,47.446430 167.649170,44.975643 
M282.456818,28.857168 
	C280.823456,23.491732 277.124023,22.842928 271.689819,24.484022 
	C273.350861,27.638021 274.516388,30.782852 276.454132,33.343227 
	C280.954468,39.289459 281.092651,44.765400 276.414429,50.753716 
	C273.981354,53.868168 272.488464,57.717152 270.496582,61.370613 
	C276.263550,63.241707 279.454651,61.975845 281.227753,57.057625 
	C282.063385,54.739670 283.753448,52.729744 285.047394,50.595066 
	C290.457977,53.981998 289.152313,64.225349 298.728851,61.818729 
	C299.843842,56.643223 296.408081,53.153992 294.057465,49.647907 
	C290.570221,44.446480 290.194214,39.973011 294.022644,34.806458 
	C296.264435,31.781107 297.572754,28.064032 299.306458,24.647333 
	C289.366730,20.574955 289.971802,30.340776 285.435028,33.835735 
	C284.464691,32.219650 283.643524,30.852011 282.456818,28.857168 
M211.530350,37.999596 
	C211.178635,31.463026 211.178635,31.461903 217.397858,31.426403 
	C218.394592,31.420713 219.391403,31.433706 220.388184,31.432018 
	C226.867294,31.421049 227.511780,30.528648 225.510361,23.708466 
	C219.521301,23.708466 213.384155,23.543034 207.271744,23.857725 
	C206.143234,23.915825 204.206589,25.894821 204.181244,27.021824 
	C203.942200,37.648685 204.086411,48.283455 204.001816,58.915001 
	C203.979858,61.676331 205.385208,62.211731 207.733765,62.245880 
	C210.246674,62.282417 211.328110,61.340626 211.348587,58.762638 
	C211.376053,55.305264 210.402863,50.456104 212.230286,48.761890 
	C214.316910,46.827374 219.004028,47.493813 222.569122,47.420357 
	C225.607376,47.357769 226.054657,45.795666 226.067368,43.282436 
	C226.080032,40.774929 225.212128,39.723183 222.608887,39.650131 
	C219.034164,39.549816 215.470474,39.056705 211.530350,37.999596 
M89.381996,62.240856 
	C89.881775,62.240971 90.381653,62.234947 90.881325,62.242229 
	C93.608185,62.281963 96.145882,62.609135 96.109192,58.342098 
	C96.073738,54.218998 93.687622,54.271900 90.887558,54.303608 
	C89.388435,54.320587 87.863319,54.123531 86.394356,54.333630 
	C81.879280,54.979412 80.709450,53.003838 80.882965,48.692158 
	C81.209091,40.588268 80.976967,32.461910 80.976967,24.482536 
	C73.814514,22.944702 73.467232,23.189505 73.451874,29.616795 
	C73.429588,38.945965 73.538620,48.276646 73.395905,57.603683 
	C73.344887,60.937943 74.301613,62.547535 77.919327,62.294270 
	C81.400764,62.050541 84.912567,62.240734 89.381996,62.240856 
M244.464386,62.218189 
	C247.544052,62.218189 250.623718,62.218189 253.755417,62.218189 
	C253.954666,57.933327 255.568878,54.210449 249.483490,54.242306 
	C239.009903,54.297142 239.012833,54.056183 239.027435,43.279774 
	C239.036118,36.878399 239.029037,30.476994 239.029037,24.128887 
	C236.209503,24.128887 234.306107,24.128887 231.854080,24.128887 
	C231.854080,33.128513 231.854553,41.743065 231.853958,50.357616 
	C231.853149,62.218212 231.852814,62.218212 244.464386,62.218189 
M258.856842,50.478340 
	C258.860626,52.808674 258.928314,55.141117 258.851410,57.468788 
	C258.762360,60.164673 258.774261,62.369587 262.617981,62.281361 
	C266.172668,62.199764 266.108398,60.126629 266.100647,57.658546 
	C266.070862,48.170879 266.111450,38.683002 266.084534,29.195316 
	C266.067719,23.270447 265.336761,22.797125 259.331299,24.610752 
	C259.217896,24.915470 259.007538,25.219435 259.005157,25.525019 
	C258.942871,33.511860 258.902130,41.498871 258.856842,50.478340 
M107.967407,31.592285 
	C107.962265,22.877707 107.755981,22.665218 100.676620,24.715714 
	C100.676620,35.822571 100.710289,47.073505 100.651001,58.323944 
	C100.637566,60.874603 101.216652,62.305264 104.228798,62.317848 
	C107.527138,62.331627 108.021744,60.682453 107.992027,57.950401 
	C107.899986,49.490612 107.964561,41.029118 107.967407,31.592285 
z"/>
<path fill="#3DA4BF" opacity="1.000000" stroke="none" 
	d="
M136.150543,41.924347 
	C139.951019,46.514603 141.357864,51.296692 138.753662,56.540970 
	C136.248688,61.585426 131.510864,62.271603 126.409096,62.262119 
	C114.197899,62.239422 114.194847,62.319004 114.182625,49.862869 
	C114.175598,42.698311 114.306885,35.530487 114.123253,28.370613 
	C114.036591,24.991690 115.056053,23.380989 118.642677,23.670773 
	C121.125191,23.871349 123.638229,23.716049 126.137215,23.685949 
	C130.600128,23.632191 134.938599,23.955303 137.430115,28.446369 
	C139.993637,33.067226 139.069168,37.426388 136.150543,41.924347 
M131.208420,47.036972 
	C129.108398,46.718723 126.951530,45.969501 124.928703,46.236370 
	C123.618027,46.409286 121.703369,47.921379 121.490524,49.093342 
	C121.181305,50.795956 121.964462,54.222809 122.628807,54.311378 
	C125.455261,54.688202 128.593124,54.589096 131.211090,53.594547 
	C132.052597,53.274857 131.645966,49.669666 131.208420,47.036972 
M122.275040,38.440380 
	C124.237473,38.562843 126.392700,39.237919 128.104111,38.640854 
	C129.595123,38.120670 131.566498,36.131397 131.522751,34.852974 
	C131.478378,33.557217 129.395630,31.546083 127.907150,31.222813 
	C121.928825,29.924423 120.801819,31.295534 122.275040,38.440380 
z"/>
<path fill="#3BA1BB" opacity="1.000000" stroke="none" 
	d="
M184.584961,38.630188 
	C188.017319,38.769135 191.013412,38.922653 193.999359,38.809109 
	C196.691788,38.706726 197.915268,39.608646 197.959335,42.490417 
	C198.004181,45.422874 197.082153,46.873142 194.001465,46.726994 
	C191.679398,46.616829 189.340225,46.832878 187.021774,46.690453 
	C184.158295,46.514545 182.804123,47.375782 182.818817,50.572914 
	C182.833847,53.843842 184.396011,54.506149 187.149139,54.389221 
	C189.637817,54.283527 192.140732,54.501465 194.628265,54.383854 
	C197.514206,54.247410 198.858078,55.207848 198.826523,58.361946 
	C198.794739,61.540009 197.337036,62.325306 194.517441,62.263805 
	C189.532257,62.155064 184.538986,62.141357 179.556168,62.304214 
	C176.628906,62.399883 175.306534,61.435860 175.338013,58.347733 
	C175.443024,48.040905 175.271698,37.729439 175.539459,27.428410 
	C175.572769,26.147009 177.549271,23.901443 178.724869,23.833855 
	C184.992325,23.473536 191.291443,23.664148 197.429901,23.664148 
	C199.485550,30.644264 198.918533,31.468334 192.509354,31.505497 
	C191.013031,31.514172 189.516129,31.492996 188.020432,31.526943 
	C182.389359,31.654747 181.618439,33.054810 184.584961,38.630188 
z"/>
<path fill="#3EA6C1" opacity="1.000000" stroke="none" 
	d="
M167.405487,45.271027 
	C164.708466,47.446430 164.769485,49.452133 166.360718,52.009640 
	C168.159882,54.901360 169.503204,58.076706 171.172729,61.382069 
	C166.250916,63.052021 162.925491,62.563141 161.124542,57.706776 
	C160.321350,55.540951 159.326736,53.318066 157.878525,51.568466 
	C157.036057,50.550682 155.129898,50.094311 153.687698,50.063145 
	C153.175186,50.052067 152.418488,51.994678 152.140854,53.134949 
	C151.873169,54.234394 152.082657,55.449322 152.077408,56.613491 
	C152.050705,62.532486 152.036819,62.543381 144.913864,61.739521 
	C144.913864,55.599552 144.913864,49.342812 144.913864,43.086067 
	C144.913864,36.952126 144.913864,30.818180 144.913864,23.940624 
	C152.795609,24.481932 160.832550,20.991014 167.250031,27.708261 
	C171.084167,31.721491 171.032837,38.734680 167.405487,45.271027 
M153.339676,31.515123 
	C153.070343,34.739658 152.801010,37.964195 152.531693,41.188732 
	C154.869492,41.242027 157.207275,41.295326 160.228271,41.099133 
	C160.669479,38.698711 162.264938,35.394749 161.267471,34.120495 
	C159.941193,32.426201 156.594315,32.313610 153.339676,31.515123 
z"/>
<path fill="#3DA4BE" opacity="1.000000" stroke="none" 
	d="
M282.639587,29.170771 
	C283.643524,30.852011 284.464691,32.219650 285.435028,33.835735 
	C289.971802,30.340776 289.366730,20.574955 299.306458,24.647333 
	C297.572754,28.064032 296.264435,31.781107 294.022644,34.806458 
	C290.194214,39.973011 290.570221,44.446480 294.057465,49.647907 
	C296.408081,53.153992 299.843842,56.643223 298.728851,61.818729 
	C289.152313,64.225349 290.457977,53.981998 285.047394,50.595066 
	C283.753448,52.729744 282.063385,54.739670 281.227753,57.057625 
	C279.454651,61.975845 276.263550,63.241707 270.496582,61.370613 
	C272.488464,57.717152 273.981354,53.868168 276.414429,50.753716 
	C281.092651,44.765400 280.954468,39.289459 276.454132,33.343227 
	C274.516388,30.782852 273.350861,27.638021 271.689819,24.484022 
	C277.124023,22.842928 280.823456,23.491732 282.639587,29.170771 
z"/>
<path fill="#3FA6C0" opacity="1.000000" stroke="none" 
	d="
M211.716202,38.365753 
	C215.470474,39.056705 219.034164,39.549816 222.608887,39.650131 
	C225.212128,39.723183 226.080032,40.774929 226.067368,43.282436 
	C226.054657,45.795666 225.607376,47.357769 222.569122,47.420357 
	C219.004028,47.493813 214.316910,46.827374 212.230286,48.761890 
	C210.402863,50.456104 211.376053,55.305264 211.348587,58.762638 
	C211.328110,61.340626 210.246674,62.282417 207.733765,62.245880 
	C205.385208,62.211731 203.979858,61.676331 204.001816,58.915001 
	C204.086411,48.283455 203.942200,37.648685 204.181244,27.021824 
	C204.206589,25.894821 206.143234,23.915825 207.271744,23.857725 
	C213.384155,23.543034 219.521301,23.708466 225.510361,23.708466 
	C227.511780,30.528648 226.867294,31.421049 220.388184,31.432018 
	C219.391403,31.433706 218.394592,31.420713 217.397858,31.426403 
	C211.178635,31.461903 211.178635,31.463026 211.716202,38.365753 
z"/>
<path fill="#2D7688" opacity="1.000000" stroke="none" 
	d="
M42.827095,38.050194 
	C45.041988,39.649616 47.176128,41.378555 49.489075,42.820713 
	C53.910767,45.577705 54.053440,48.474236 49.549706,51.508499 
	C42.797184,56.057831 35.969788,60.498730 29.109907,64.885139 
	C23.719543,68.331894 21.357565,67.155731 20.583961,60.782928 
	C20.343819,58.804665 20.206852,56.813881 20.022804,54.158134 
	C20.086357,53.328396 20.149757,53.169346 20.543522,52.955105 
	C27.826340,48.218861 34.778790,43.537811 41.857952,38.650131 
	C42.192165,38.155277 42.472977,38.024174 42.827095,38.050194 
z"/>
<path fill="#F7FAFA" opacity="1.000000" stroke="none" 
	d="
M42.965466,37.751549 
	C42.472977,38.024174 42.192165,38.155277 41.561615,38.506401 
	C36.400173,36.169865 31.703009,33.684170 26.912266,31.394262 
	C21.697414,28.901636 18.974363,30.761654 19.231897,36.608608 
	C19.472874,42.079632 19.879456,47.543362 20.213156,53.010300 
	C20.149757,53.169346 20.086357,53.328396 19.951805,53.734909 
	C13.180408,57.461472 11.047216,56.158710 11.005147,48.454124 
	C10.958933,39.990582 11.089380,31.525057 10.953761,23.063427 
	C10.884039,18.713285 12.919164,18.174057 16.212469,19.808987 
	C24.364574,23.856024 32.540901,27.871784 40.496063,32.281532 
	C41.891941,33.055305 42.260715,35.681965 42.965466,37.751549 
z"/>
<path fill="#3CA1BB" opacity="1.000000" stroke="none" 
	d="
M88.896515,62.240562 
	C84.912567,62.240734 81.400764,62.050541 77.919327,62.294270 
	C74.301613,62.547535 73.344887,60.937943 73.395905,57.603683 
	C73.538620,48.276646 73.429588,38.945965 73.451874,29.616795 
	C73.467232,23.189505 73.814514,22.944702 80.976967,24.482536 
	C80.976967,32.461910 81.209091,40.588268 80.882965,48.692158 
	C80.709450,53.003838 81.879280,54.979412 86.394356,54.333630 
	C87.863319,54.123531 89.388435,54.320587 90.887558,54.303608 
	C93.687622,54.271900 96.073738,54.218998 96.109192,58.342098 
	C96.145882,62.609135 93.608185,62.281963 90.881325,62.242229 
	C90.381653,62.234947 89.881775,62.240971 88.896515,62.240562 
z"/>
<path fill="#40A6C0" opacity="1.000000" stroke="none" 
	d="
M243.975433,62.217697 
	C231.852814,62.218212 231.853149,62.218212 231.853958,50.357616 
	C231.854553,41.743065 231.854080,33.128513 231.854080,24.128887 
	C234.306107,24.128887 236.209503,24.128887 239.029037,24.128887 
	C239.029037,30.476994 239.036118,36.878399 239.027435,43.279774 
	C239.012833,54.056183 239.009903,54.297142 249.483490,54.242306 
	C255.568878,54.210449 253.954666,57.933327 253.755417,62.218189 
	C250.623718,62.218189 247.544052,62.218189 243.975433,62.217697 
z"/>
<path fill="#40A8C2" opacity="1.000000" stroke="none" 
	d="
M258.857239,49.982094 
	C258.902130,41.498871 258.942871,33.511860 259.005157,25.525019 
	C259.007538,25.219435 259.217896,24.915470 259.335724,24.612396 
	C265.336761,22.797125 266.067719,23.270447 266.084534,29.195316 
	C266.111450,38.683002 266.070862,48.170879 266.100647,57.658546 
	C266.108398,60.126629 266.172668,62.199764 262.617981,62.281361 
	C258.774261,62.369587 258.762360,60.164673 258.851410,57.468788 
	C258.928314,55.141117 258.860626,52.808674 258.857239,49.982094 
z"/>
<path fill="#4A9EB5" opacity="1.000000" stroke="none" 
	d="
M107.967873,32.080284 
	C107.964561,41.029118 107.899986,49.490612 107.992027,57.950401 
	C108.021744,60.682453 107.527138,62.331627 104.228798,62.317848 
	C101.216652,62.305264 100.637566,60.874603 100.651001,58.323944 
	C100.710289,47.073505 100.676620,35.822571 100.676620,24.715714 
	C107.755981,22.665218 107.962265,22.877707 107.967873,32.080284 
M102.181816,58.697361 
	C102.876404,59.272266 103.570992,59.847172 104.265579,60.422077 
	C104.844368,59.176434 105.903946,57.938816 105.924889,56.683865 
	C106.074936,47.693417 106.092911,38.698063 105.936394,29.708035 
	C105.912201,28.318216 104.780083,26.947689 104.160324,25.568241 
	C103.434029,27.010374 102.105492,28.441692 102.079361,29.896400 
	C101.911964,39.218376 102.030441,48.545479 102.181816,58.697361 
z"/>
<path fill="#0E262E" opacity="1.000000" stroke="none" 
	d="
M131.509369,47.302269 
	C131.645966,49.669666 132.052597,53.274857 131.211090,53.594547 
	C128.593124,54.589096 125.455261,54.688202 122.628807,54.311378 
	C121.964462,54.222809 121.181305,50.795956 121.490524,49.093342 
	C121.703369,47.921379 123.618027,46.409286 124.928703,46.236370 
	C126.951530,45.969501 129.108398,46.718723 131.509369,47.302269 
z"/>
<path fill="#0F2931" opacity="1.000000" stroke="none" 
	d="
M121.999207,38.126793 
	C120.801819,31.295534 121.928825,29.924423 127.907150,31.222813 
	C129.395630,31.546083 131.478378,33.557217 131.522751,34.852974 
	C131.566498,36.131397 129.595123,38.120670 128.104111,38.640854 
	C126.392700,39.237919 124.237473,38.562843 121.999207,38.126793 
z"/>
<path fill="#101920" opacity="1.000000" stroke="none" 
	d="
M154.115540,31.521479 
	C156.594315,32.313610 159.941193,32.426201 161.267471,34.120495 
	C162.264938,35.394749 160.669479,38.698711 159.441696,41.144978 
	C152.605591,40.268253 151.835098,38.627121 154.115540,31.521479 
z"/>
<path fill="#0A3648" opacity="1.000000" stroke="none" 
	d="
M153.727600,31.518301 
	C151.835098,38.627121 152.605591,40.268253 159.100098,41.269722 
	C157.207275,41.295326 154.869492,41.242027 152.531693,41.188732 
	C152.801010,37.964195 153.070343,34.739658 153.727600,31.518301 
z"/>
<path fill="#81C7D9" opacity="1.000000" stroke="none" 
	d="
M20.543522,52.955105 
	C19.879456,47.543362 19.472874,42.079632 19.231897,36.608608 
	C18.974363,30.761654 21.697414,28.901636 26.912266,31.394262 
	C31.703009,33.684170 36.400173,36.169865 41.434902,38.713036 
	C34.778790,43.537811 27.826340,48.218861 20.543522,52.955105 
z"/>
<path fill="#38ABC9" opacity="1.000000" stroke="none" 
	d="
M102.118378,58.284130 
	C102.030441,48.545479 101.911964,39.218376 102.079361,29.896400 
	C102.105492,28.441692 103.434029,27.010374 104.160324,25.568241 
	C104.780083,26.947689 105.912201,28.318216 105.936394,29.708035 
	C106.092911,38.698063 106.074936,47.693417 105.924889,56.683865 
	C105.903946,57.938816 104.844368,59.176434 104.265579,60.422077 
	C103.570992,59.847172 102.876404,59.272266 102.118378,58.284130 
z"/>
</svg>